<?xml version="1.0" encoding="UTF-8" standalone="no"?>
<svg
   xmlns:dc="http://purl.org/dc/elements/1.1/"
   xmlns:cc="http://creativecommons.org/ns#"
   xmlns:rdf="http://www.w3.org/1999/02/22-rdf-syntax-ns#"
   xmlns:svg="http://www.w3.org/2000/svg"
   xmlns="http://www.w3.org/2000/svg"
   xmlns:sodipodi="http://sodipodi.sourceforge.net/DTD/sodipodi-0.dtd"
   xmlns:inkscape="http://www.inkscape.org/namespaces/inkscape"
   inkscape:version="1.0 (4035a4f, 2020-05-01)"
   height="100"
   width="100"
   sodipodi:docname="noun_baked_2870290.svg"
   id="svg198"
   xml:space="preserve"
   viewBox="0 0 100 100"
   y="0px"
   x="0px"
   version="1.1"><metadata
     id="metadata204"><rdf:RDF><cc:Work
         rdf:about=""><dc:format>image/svg+xml</dc:format><dc:type
           rdf:resource="http://purl.org/dc/dcmitype/StillImage" /><dc:title></dc:title></cc:Work></rdf:RDF></metadata><defs
     id="defs202" /><sodipodi:namedview
     inkscape:current-layer="svg198"
     inkscape:window-maximized="1"
     inkscape:window-y="0"
     inkscape:window-x="0"
     inkscape:cy="52.29864"
     inkscape:cx="79.365462"
     inkscape:zoom="7.2920387"
     showgrid="false"
     id="namedview200"
     inkscape:window-height="1048"
     inkscape:window-width="1920"
     inkscape:pageshadow="2"
     inkscape:pageopacity="0"
     guidetolerance="10"
     gridtolerance="10"
     objecttolerance="10"
     borderopacity="1"
     bordercolor="#666666"
     pagecolor="#ffffff" /><g
     transform="matrix(0.20759323,0,0,0.20759323,-3.1315444,-2.7473916)"
     id="g192"><g
       id="g190"><g
         id="g128"><path
           id="path126"
           d="m 433.5,360 h -370 c -2.209,0 -4,-1.791 -4,-4 V 241 c 0,-47.483 17.679,-92.876 49.782,-127.818 30.619,-33.327 71.767,-54.425 116.387,-59.801 -0.771,-2.373 -1.168,-4.86 -1.168,-7.381 0,-13.234 10.766,-24 24,-24 13.233,0 24,10.766 24,24 0,2.521 -0.397,5.008 -1.169,7.381 44.621,5.376 85.769,26.474 116.388,59.801 32.1,34.942 49.78,80.335 49.78,127.818 v 115 c 0,2.209 -1.791,4 -4,4 z m -366,-8 h 362 V 241 c 0,-94.295 -70.73,-171.784 -164.523,-180.245 -1.394,-0.125 -2.619,-0.969 -3.232,-2.225 -0.615,-1.255 -0.53,-2.741 0.224,-3.917 1.657,-2.586 2.533,-5.564 2.533,-8.613 0,-8.822 -7.178,-16 -16,-16 -8.822,0 -16,7.178 -16,16 0,3.049 0.876,6.027 2.533,8.613 0.754,1.177 0.839,2.662 0.225,3.917 -0.615,1.256 -1.841,2.099 -3.233,2.225 C 138.23,69.216 67.5,146.705 67.5,241 Z" /></g><g
         id="g132"><path
           id="path130"
           d="m 383.5,360 h -270 c -2.209,0 -4,-1.791 -4,-4 V 266.443 C 109.5,247.451 127.098,232 148.729,232 h 199.542 c 21.631,0 39.229,15.451 39.229,34.443 V 356 c 0,2.209 -1.791,4 -4,4 z m -266,-8 h 262 V 266.443 C 379.5,251.861 365.491,240 348.271,240 H 148.729 c -17.22,0 -31.229,11.862 -31.229,26.443 z" /></g><g
         id="g136"><path
           id="path134"
           d="m 213.697,324.969 c -10.413,0 -20.736,-4.212 -30.757,-12.563 -13.861,-11.553 -29.293,-15.074 -45.869,-10.471 -12.526,3.479 -20.927,10.399 -21.01,10.471 -1.696,1.414 -4.219,1.185 -5.633,-0.514 -1.414,-1.697 -1.185,-4.219 0.512,-5.634 0.394,-0.327 9.824,-8.096 23.99,-12.03 13.238,-3.68 33.204,-4.578 53.131,12.03 9.816,8.181 19.751,11.698 29.532,10.462 16.598,-2.104 27.552,-17.074 27.661,-17.226 1.291,-1.793 3.79,-2.198 5.583,-0.909 1.792,1.291 2.2,3.79 0.909,5.583 -0.527,0.731 -13.135,17.952 -33.148,20.488 -1.635,0.209 -3.27,0.313 -4.901,0.313 z" /></g><g
         id="g140"><path
           id="path138"
           d="m 283.303,324.969 c -1.632,0 -3.266,-0.104 -4.9,-0.311 -20.014,-2.536 -32.621,-19.756 -33.147,-20.488 -1.291,-1.793 -0.884,-4.292 0.909,-5.583 1.793,-1.29 4.292,-0.884 5.583,0.909 0.105,0.146 11.185,15.17 27.72,17.232 9.766,1.223 19.676,-2.306 29.475,-10.47 19.927,-16.608 39.893,-15.709 53.131,-12.03 14.167,3.936 23.596,11.703 23.99,12.03 1.696,1.415 1.927,3.937 0.513,5.634 -1.415,1.696 -3.938,1.924 -5.632,0.516 -1.416,-1.17 -33.965,-27.432 -66.881,-0.002 -10.024,8.35 -20.348,12.563 -30.761,12.563 z" /></g><g
         id="g144"><path
           id="path142"
           d="m 468.5,390 h -425 c -10.477,0 -19,-8.523 -19,-19 0,-10.477 8.523,-19 19,-19 h 425 c 10.477,0 19,8.523 19,19 0,10.477 -8.523,19 -19,19 z m -425,-30 c -6.065,0 -11,4.936 -11,11 0,6.064 4.935,11 11,11 h 425 c 6.065,0 11,-4.936 11,-11 0,-6.064 -4.935,-11 -11,-11 z" /></g><g
         id="g148"><path
           id="path146"
           d="m 373.5,490 h -240 c -13.233,0 -24,-10.767 -24,-24 0,-13.233 10.767,-24 24,-24 h 11 c 30.327,0 55,-24.673 55,-55 v -1 c 0,-2.209 1.791,-4 4,-4 h 100 c 2.209,0 4,1.791 4,4 v 1 c 0,30.327 24.673,55 55,55 h 11 c 13.233,0 24,10.767 24,24 0,13.233 -10.767,24 -24,24 z m -240,-40 c -8.822,0 -16,7.178 -16,16 0,8.822 7.178,16 16,16 h 240 c 8.822,0 16,-7.178 16,-16 0,-8.822 -7.178,-16 -16,-16 h -11 c -33.733,0 -61.359,-26.648 -62.93,-60 h -92.14 c -1.57,33.352 -29.196,60 -62.93,60 z" /></g><g
         id="g152"><path
           id="path150"
           d="m 283.5,450 c -2.209,0 -4,-1.791 -4,-4 v -20 c 0,-2.209 1.791,-4 4,-4 2.209,0 4,1.791 4,4 v 20 c 0,2.209 -1.791,4 -4,4 z" /></g><g
         id="g156"><path
           id="path154"
           d="m 253.5,450 c -2.209,0 -4,-1.791 -4,-4 v -20 c 0,-2.209 1.791,-4 4,-4 2.209,0 4,1.791 4,4 v 20 c 0,2.209 -1.791,4 -4,4 z" /></g><g
         id="g160"><path
           id="path158"
           d="m 223.5,450 c -2.209,0 -4,-1.791 -4,-4 v -20 c 0,-2.209 1.791,-4 4,-4 2.209,0 4,1.791 4,4 v 20 c 0,2.209 -1.791,4 -4,4 z" /></g><g
         id="g164"><path
           id="path162"
           d="m 333.5,240 c -2.209,0 -4,-1.791 -4,-4 v -35 c 0,-17.093 -13.906,-31 -31,-31 H 193.729 c -17.093,0 -31,13.907 -31,31 v 35 c 0,2.209 -1.791,4 -4,4 -2.209,0 -4,-1.791 -4,-4 v -35 c 0,-21.505 17.495,-39 39,-39 H 298.5 c 21.505,0 39,17.495 39,39 v 35 c 0,2.209 -1.791,4 -4,4 z" /></g><g
         id="g168"><path
           id="path166"
           d="m 228.5,170 c -15.991,0 -29,-13.009 -29,-29 0,-15.991 13.009,-29 29,-29 15.991,0 29,13.009 29,29 0,15.991 -13.009,29 -29,29 z m 0,-50 c -11.58,0 -21,9.42 -21,21 0,11.58 9.42,21 21,21 11.58,0 21,-9.42 21,-21 0,-11.58 -9.42,-21 -21,-21 z" /></g><g
         id="g172"><path
           id="path170"
           d="m 268.5,170 c -10.477,0 -19,-8.523 -19,-19 0,-10.477 8.523,-19 19,-19 10.477,0 19,8.523 19,19 0,10.477 -8.523,19 -19,19 z m 0,-30 c -6.064,0 -11,4.935 -11,11 0,6.065 4.936,11 11,11 6.064,0 11,-4.935 11,-11 0,-6.065 -4.936,-11 -11,-11 z" /></g><path
         id="path174"
         d="m 142.504,136.049 v 0 c 5.495,-0.549 10.396,3.46 10.945,8.956 v 0 c 0.549,5.495 -3.46,10.396 -8.956,10.945 v 0 c -5.495,0.549 -10.396,-3.46 -10.945,-8.956 v 0 c -0.548,-5.495 3.461,-10.395 8.956,-10.945 z" /><path
         id="path176"
         d="m 352.504,146.05 v 0 c 5.496,-0.549 10.396,3.46 10.945,8.956 v 0 c 0.55,5.495 -3.46,10.396 -8.955,10.945 v 0 c -5.495,0.549 -10.396,-3.46 -10.945,-8.956 v 0 c -0.55,-5.495 3.46,-10.395 8.955,-10.945 z" /><path
         id="path178"
         d="m 382.506,196.049 v 0 c 5.495,-0.549 10.396,3.46 10.945,8.956 v 0 c 0.55,5.495 -3.46,10.396 -8.955,10.945 v 0 C 379,216.499 374.1,212.49 373.551,206.994 v 0 c -0.55,-5.495 3.46,-10.395 8.955,-10.945 z" /><path
         id="path180"
         d="m 102.506,196.049 v 0 c 5.495,-0.549 10.396,3.46 10.945,8.956 v 0 c 0.549,5.495 -3.46,10.396 -8.956,10.945 v 0 C 99,216.499 94.1,212.49 93.55,206.994 v 0 c -0.549,-5.495 3.46,-10.395 8.956,-10.945 z" /><g
         id="g184"><path
           id="path182"
           d="m 58.5,120 c -10.477,0 -19,-8.523 -19,-19 0,-10.477 8.523,-19 19,-19 10.477,0 19,8.523 19,19 0,10.477 -8.523,19 -19,19 z m 0,-30 c -6.065,0 -11,4.935 -11,11 0,6.065 4.935,11 11,11 6.065,0 11,-4.935 11,-11 0,-6.065 -4.935,-11 -11,-11 z" /></g><g
         id="g188"><path
           id="path186"
           d="m 443.5,100 c -13.233,0 -24,-10.766 -24,-24 0,-13.234 10.767,-24 24,-24 13.233,0 24,10.766 24,24 0,13.234 -10.767,24 -24,24 z m 0,-40 c -8.822,0 -16,7.178 -16,16 0,8.822 7.178,16 16,16 8.822,0 16,-7.178 16,-16 0,-8.822 -7.178,-16 -16,-16 z" /></g></g></g></svg>
